{"title":"Twin Peaks - Fire Walk With Me (1992) 720p x264 Rerip","uid":10667792,"size":970267849,"categoryP":"video","categoryS":"hd___movies","magnet":"?xt=urn:btih:5460bb91a2019e732840663bc5440bb9e87a9ef3&amp;dn=Twin+Peaks+-+Fire+Walk+With+Me+%281992%29+720p+x264+Rerip&amp;tr=udp%3A%2F%2Ftracker.openbittorrent.com%3A80&amp;tr=udp%3A%2F%2Fopen.demonii.com%3A1337&amp;tr=udp%3A%2F%2Ftracker.coppersurfer.tk%3A6969&amp;tr=udp%3A%2F%2Fexodus.desync.com%3A6969","seeders":1,"leechers":0,"uploader":"downloather","files":1,"time":1406829838,"description":"Input #0, mov,mp4,m4a,3gp,3g2,mj2, from 'Twin Peaks - Fire Walk With Me.mp4':\n  Metadata:\n    major_brand     : isom\n    minor_version   : 512\n    compatible_brands: isomiso2avc1mp41\n    encoder         : Lavf54.63.104\n  Duration: 02:14:52.89, start: 0.166000, bitrate: 959 kb/s\n    Stream #0:0(und): Video: h264 (High) (avc1 / 0x31637661), yuv420p, 1280x688 [SAR 1:1 DAR 80:43], 823 kb/s, 23.98 fps, 23.98 tbr, 24k tbn, 47.95 tbc\n    Metadata:\n      handler_name    : VideoHandler\n    Stream #0:1(eng): Audio: aac (mp4a / 0x6134706D), 48000 Hz, stereo, fltp, 127 kb/s\n    Metadata:\n      handler_name    : SoundHandler\n\n\nThis is a rerip from this one: https://thepiratebay.se/torrent/10647724/Twin.Peaks.Fire.Walk.with.Me.1992.The.Missing.Pieces.720p.BluRay\n\nThe big advantage is that it's not that big and is watchable on a 55&quot; TV.\n\nEnjoy :)","torrent":{"xt":"urn:btih:5460bb91a2019e732840663bc5440bb9e87a9ef3","amp;dn":"Twin+Peaks+-+Fire+Walk+With+Me+%281992%29+720p+x264+Rerip","amp;tr":["udp%3A%2F%2Ftracker.openbittorrent.com%3A80","udp%3A%2F%2Fopen.demonii.com%3A1337","udp%3A%2F%2Ftracker.coppersurfer.tk%3A6969","udp%3A%2F%2Fexodus.desync.com%3A6969"],"infoHash":"5460bb91a2019e732840663bc5440bb9e87a9ef3","infoHashBuffer":{"type":"Buffer","data":[84,96,187,145,162,1,158,115,40,64,102,59,197,68,11,185,232,122,158,243]},"announce":[],"urlList":[]}}